<svg xmlns="http://www.w3.org/2000/svg" width="470" height="150" viewBox="0 0 470 150" role="img" aria-label="Nyx">
  <defs>
    <mask id="crescent">
      <rect width="470" height="150" fill="black"/>
      <circle cx="78" cy="70" r="40" fill="white"/>
      <circle cx="96" cy="62" r="38" fill="black"/>
    </mask>
    <linearGradient id="bg" x1="0" y1="0" x2="1" y2="1">
      <stop offset="0" stop-color="#0B0D1A"/>
      <stop offset="1" stop-color="#06060A"/>
    </linearGradient>
  </defs>
  <rect x="1.5" y="1.5" width="467" height="147" rx="10" fill="url(#bg)" stroke="#263258" stroke-width="2"/>
  <!-- stars -->
  <rect x="118" y="30" width="3" height="3" fill="#19E2B4" opacity="0.8"/>
  <rect x="126" y="104" width="2" height="2" fill="#EDEAE0" opacity="0.5"/>
  <rect x="40" y="118" width="2" height="2" fill="#19E2B4" opacity="0.6"/>
  <rect x="410" y="34" width="3" height="3" fill="#19E2B4" opacity="0.7"/>
  <rect x="432" y="112" width="2" height="2" fill="#EDEAE0" opacity="0.5"/>
  <!-- crescent moon -->
  <g mask="url(#crescent)">
    <circle cx="78" cy="70" r="40" fill="#19E2B4"/>
  </g>
  <!-- pixel wordmark -->
    <rect x="150" y="46" width="13" height="13" fill="#EDEAE0"/>
  <rect x="202" y="46" width="13" height="13" fill="#EDEAE0"/>
  <rect x="150" y="59" width="13" height="13" fill="#EDEAE0"/>
  <rect x="163" y="59" width="13" height="13" fill="#EDEAE0"/>
  <rect x="202" y="59" width="13" height="13" fill="#EDEAE0"/>
  <rect x="150" y="72" width="13" height="13" fill="#EDEAE0"/>
  <rect x="176" y="72" width="13" height="13" fill="#EDEAE0"/>
  <rect x="202" y="72" width="13" height="13" fill="#EDEAE0"/>
  <rect x="150" y="85" width="13" height="13" fill="#EDEAE0"/>
  <rect x="189" y="85" width="13" height="13" fill="#EDEAE0"/>
  <rect x="202" y="85" width="13" height="13" fill="#EDEAE0"/>
  <rect x="150" y="98" width="13" height="13" fill="#EDEAE0"/>
  <rect x="202" y="98" width="13" height="13" fill="#EDEAE0"/>
  <rect x="228" y="46" width="13" height="13" fill="#EDEAE0"/>
  <rect x="280" y="46" width="13" height="13" fill="#EDEAE0"/>
  <rect x="241" y="59" width="13" height="13" fill="#EDEAE0"/>
  <rect x="267" y="59" width="13" height="13" fill="#EDEAE0"/>
  <rect x="254" y="72" width="13" height="13" fill="#EDEAE0"/>
  <rect x="254" y="85" width="13" height="13" fill="#EDEAE0"/>
  <rect x="254" y="98" width="13" height="13" fill="#EDEAE0"/>
  <rect x="306" y="46" width="13" height="13" fill="#EDEAE0"/>
  <rect x="358" y="46" width="13" height="13" fill="#EDEAE0"/>
  <rect x="319" y="59" width="13" height="13" fill="#EDEAE0"/>
  <rect x="345" y="59" width="13" height="13" fill="#EDEAE0"/>
  <rect x="332" y="72" width="13" height="13" fill="#EDEAE0"/>
  <rect x="319" y="85" width="13" height="13" fill="#EDEAE0"/>
  <rect x="345" y="85" width="13" height="13" fill="#EDEAE0"/>
  <rect x="306" y="98" width="13" height="13" fill="#EDEAE0"/>
  <rect x="358" y="98" width="13" height="13" fill="#EDEAE0"/>
  <!-- tagline strip -->
  <rect x="150" y="104" width="221" height="2" fill="#263258"/>
</svg>